<svg width="46" height="47" viewBox="0 0 46 47" fill="none" xmlns="http://www.w3.org/2000/svg">
<g clip-path="url(#clip0_8_499)">
<mask id="path-1-inside-1_8_499" fill="white">
<path fill-rule="evenodd" clip-rule="evenodd" d="M41.491 24.7391L45.7834 32.9894C45.9262 33.2625 46 33.5663 46 33.874V44.5316C46 45.5896 45.1413 46.4482 44.0833 46.4482H1.91667C0.858667 46.4482 0 45.5896 0 44.5316V33.874C0 33.5711 0.071875 33.2721 0.209875 33.0028L4.41792 24.7525C4.74471 24.1105 5.40404 23.707 6.12471 23.707H17.9055V17.0648C15.4991 15.4289 13.915 12.6651 13.915 9.53612C13.915 4.52499 17.9783 0.448242 22.9741 0.448242C27.9699 0.448242 32.0342 4.52499 32.0342 9.53612C32.0342 12.6612 30.4539 15.4222 28.0523 17.0581V23.707H39.791C40.5059 23.707 41.1604 24.1047 41.491 24.7391ZM22.9741 4.28158C20.0924 4.28158 17.7483 6.63908 17.7483 9.53612C17.7483 12.4332 20.0924 14.7907 22.9741 14.7907C25.8568 14.7907 28.2009 12.4341 28.2009 9.53612C28.2009 6.63812 25.8568 4.28158 22.9741 4.28158ZM24.218 30.0234V18.5272C23.8107 18.5847 23.3967 18.624 22.9732 18.623C22.5534 18.623 22.1432 18.5837 21.7379 18.5282V30.0234H24.218ZM3.83238 42.6149H42.1657V34.3426L38.6266 27.5403H28.0514V30.0243H29.2905C30.3485 30.0243 31.2072 30.883 31.2072 31.941C31.2072 32.999 30.3485 33.8577 29.2905 33.8577H26.1347H19.8212H16.6654C15.6074 33.8577 14.7487 32.999 14.7487 31.941C14.7487 30.883 15.6074 30.0243 16.6654 30.0243H17.9045V27.5403H7.29771L3.83333 34.334H3.83238V42.6149ZM33.3912 36.2871H37.7746C38.8326 36.2871 39.6912 37.1458 39.6912 38.2038C39.6912 39.2618 38.8326 40.1204 37.7746 40.1204H33.3912C32.3332 40.1204 31.4745 39.2618 31.4745 38.2038C31.4745 37.1458 32.3332 36.2871 33.3912 36.2871Z"/>
</mask>
<path fill-rule="evenodd" clip-rule="evenodd" d="M41.491 24.7391L45.7834 32.9894C45.9262 33.2625 46 33.5663 46 33.874V44.5316C46 45.5896 45.1413 46.4482 44.0833 46.4482H1.91667C0.858667 46.4482 0 45.5896 0 44.5316V33.874C0 33.5711 0.071875 33.2721 0.209875 33.0028L4.41792 24.7525C4.74471 24.1105 5.40404 23.707 6.12471 23.707H17.9055V17.0648C15.4991 15.4289 13.915 12.6651 13.915 9.53612C13.915 4.52499 17.9783 0.448242 22.9741 0.448242C27.9699 0.448242 32.0342 4.52499 32.0342 9.53612C32.0342 12.6612 30.4539 15.4222 28.0523 17.0581V23.707H39.791C40.5059 23.707 41.1604 24.1047 41.491 24.7391ZM22.9741 4.28158C20.0924 4.28158 17.7483 6.63908 17.7483 9.53612C17.7483 12.4332 20.0924 14.7907 22.9741 14.7907C25.8568 14.7907 28.2009 12.4341 28.2009 9.53612C28.2009 6.63812 25.8568 4.28158 22.9741 4.28158ZM24.218 30.0234V18.5272C23.8107 18.5847 23.3967 18.624 22.9732 18.623C22.5534 18.623 22.1432 18.5837 21.7379 18.5282V30.0234H24.218ZM3.83238 42.6149H42.1657V34.3426L38.6266 27.5403H28.0514V30.0243H29.2905C30.3485 30.0243 31.2072 30.883 31.2072 31.941C31.2072 32.999 30.3485 33.8577 29.2905 33.8577H26.1347H19.8212H16.6654C15.6074 33.8577 14.7487 32.999 14.7487 31.941C14.7487 30.883 15.6074 30.0243 16.6654 30.0243H17.9045V27.5403H7.29771L3.83333 34.334H3.83238V42.6149ZM33.3912 36.2871H37.7746C38.8326 36.2871 39.6912 37.1458 39.6912 38.2038C39.6912 39.2618 38.8326 40.1204 37.7746 40.1204H33.3912C32.3332 40.1204 31.4745 39.2618 31.4745 38.2038C31.4745 37.1458 32.3332 36.2871 33.3912 36.2871Z" fill="white"/>
<path d="M45.7834 32.9894L45.3399 33.2202L45.3403 33.2211L45.7834 32.9894ZM41.491 24.7391L41.9346 24.5083L41.9344 24.508L41.491 24.7391ZM0.209875 33.0028L0.65485 33.2309L0.655284 33.23L0.209875 33.0028ZM4.41792 24.7525L4.86333 24.9797L4.86352 24.9793L4.41792 24.7525ZM17.9055 23.707V24.207H18.4055V23.707H17.9055ZM17.9055 17.0648H18.4055V16.8001L18.1866 16.6513L17.9055 17.0648ZM28.0523 17.0581L27.7708 16.6448L27.5523 16.7937V17.0581H28.0523ZM28.0523 23.707H27.5523V24.207H28.0523V23.707ZM24.218 18.5272H24.718V17.9517L24.1481 18.0321L24.218 18.5272ZM24.218 30.0234V30.5234H24.718V30.0234H24.218ZM22.9732 18.623L22.9743 18.123H22.9732V18.623ZM21.7379 18.5282L21.8058 18.0328L21.2379 17.9549V18.5282H21.7379ZM21.7379 30.0234H21.2379V30.5234H21.7379V30.0234ZM42.1657 42.6149V43.1149H42.6657V42.6149H42.1657ZM3.83238 42.6149H3.33238V43.1149H3.83238V42.6149ZM42.1657 34.3426H42.6657V34.2203L42.6093 34.1118L42.1657 34.3426ZM38.6266 27.5403L39.0701 27.3095L38.9301 27.0403H38.6266V27.5403ZM28.0514 27.5403V27.0403H27.5514V27.5403H28.0514ZM28.0514 30.0243H27.5514V30.5243H28.0514V30.0243ZM17.9045 30.0243V30.5243H18.4045V30.0243H17.9045ZM17.9045 27.5403H18.4045V27.0403H17.9045V27.5403ZM7.29771 27.5403V27.0403H6.99142L6.85228 27.3132L7.29771 27.5403ZM3.83333 34.334V34.834H4.13962L4.27876 34.5611L3.83333 34.334ZM3.83238 34.334V33.834H3.33238V34.334H3.83238ZM46.227 32.7586L41.9346 24.5083L41.0475 24.9699L45.3399 33.2202L46.227 32.7586ZM46.5 33.874C46.5 33.4865 46.4071 33.1031 46.2265 32.7578L45.3403 33.2211C45.4453 33.422 45.5 33.6462 45.5 33.874H46.5ZM46.5 44.5316V33.874H45.5V44.5316H46.5ZM44.0833 46.9482C45.4175 46.9482 46.5 45.8657 46.5 44.5316H45.5C45.5 45.3134 44.8652 45.9482 44.0833 45.9482V46.9482ZM1.91667 46.9482H44.0833V45.9482H1.91667V46.9482ZM-0.5 44.5316C-0.5 45.8657 0.582524 46.9482 1.91667 46.9482V45.9482C1.13481 45.9482 0.5 45.3134 0.5 44.5316H-0.5ZM-0.5 33.874V44.5316H0.5V33.874H-0.5ZM-0.235099 32.7748C-0.409418 33.115 -0.5 33.4922 -0.5 33.874H0.5C0.5 33.6501 0.553168 33.4293 0.654849 33.2309L-0.235099 32.7748ZM3.97251 24.5254L-0.235534 32.7756L0.655284 33.23L4.86333 24.9797L3.97251 24.5254ZM6.12471 23.207C5.21635 23.207 4.38461 23.7157 3.97231 24.5257L4.86352 24.9793C5.10481 24.5052 5.59173 24.207 6.12471 24.207V23.207ZM17.9055 23.207H6.12471V24.207H17.9055V23.207ZM17.4055 17.0648V23.707H18.4055V17.0648H17.4055ZM13.415 9.53612C13.415 12.8378 15.0871 15.7534 17.6244 17.4783L18.1866 16.6513C15.9112 15.1044 14.415 12.4924 14.415 9.53612H13.415ZM22.9741 -0.0517578C17.7007 -0.0517578 13.415 4.25036 13.415 9.53612H14.415C14.415 4.79962 18.256 0.948242 22.9741 0.948242V-0.0517578ZM32.5342 9.53612C32.5342 4.25029 28.2475 -0.0517578 22.9741 -0.0517578V0.948242C27.6923 0.948242 31.5342 4.79969 31.5342 9.53612H32.5342ZM28.3338 17.4713C30.8662 15.7464 32.5342 12.8337 32.5342 9.53612H31.5342C31.5342 12.4888 30.0417 15.098 27.7708 16.6448L28.3338 17.4713ZM28.5523 23.707V17.0581H27.5523V23.707H28.5523ZM39.791 23.207H28.0523V24.207H39.791V23.207ZM41.9344 24.508C41.5179 23.7087 40.6927 23.207 39.791 23.207V24.207C40.3191 24.207 40.803 24.5007 41.0476 24.9702L41.9344 24.508ZM18.2483 9.53612C18.2483 6.9126 20.3712 4.78158 22.9741 4.78158V3.78158C19.8137 3.78158 17.2483 6.36555 17.2483 9.53612H18.2483ZM22.9741 14.2907C20.3712 14.2907 18.2483 12.1596 18.2483 9.53612H17.2483C17.2483 12.7067 19.8137 15.2907 22.9741 15.2907V14.2907ZM27.7009 9.53612C27.7009 12.1605 25.5782 14.2907 22.9741 14.2907V15.2907C26.1354 15.2907 28.7009 12.7078 28.7009 9.53612H27.7009ZM22.9741 4.78158C25.5782 4.78158 27.7009 6.91176 27.7009 9.53612H28.7009C28.7009 6.36448 26.1354 3.78158 22.9741 3.78158V4.78158ZM23.718 18.5272V30.0234H24.718V18.5272H23.718ZM22.972 19.123C23.4269 19.1241 23.8659 19.0819 24.2879 19.0223L24.1481 18.0321C23.7556 18.0875 23.3666 18.1239 22.9743 18.123L22.972 19.123ZM21.67 19.0235C22.0882 19.0809 22.5227 19.123 22.9732 19.123V18.123C22.5841 18.123 22.1983 18.0866 21.8058 18.0328L21.67 19.0235ZM22.2379 30.0234V18.5282H21.2379V30.0234H22.2379ZM24.218 29.5234H21.7379V30.5234H24.218V29.5234ZM42.1657 42.1149H3.83238V43.1149H42.1657V42.1149ZM41.6657 34.3426V42.6149H42.6657V34.3426H41.6657ZM38.183 27.7711L41.7221 34.5734L42.6093 34.1118L39.0701 27.3095L38.183 27.7711ZM28.0514 28.0403H38.6266V27.0403H28.0514V28.0403ZM28.5514 30.0243V27.5403H27.5514V30.0243H28.5514ZM29.2905 29.5243H28.0514V30.5243H29.2905V29.5243ZM31.7072 31.941C31.7072 30.6068 30.6246 29.5243 29.2905 29.5243V30.5243C30.0724 30.5243 30.7072 31.1591 30.7072 31.941H31.7072ZM29.2905 34.3577C30.6246 34.3577 31.7072 33.2751 31.7072 31.941H30.7072C30.7072 32.7229 30.0724 33.3577 29.2905 33.3577V34.3577ZM26.1347 34.3577H29.2905V33.3577H26.1347V34.3577ZM19.8212 34.3577H26.1347V33.3577H19.8212V34.3577ZM16.6654 34.3577H19.8212V33.3577H16.6654V34.3577ZM14.2487 31.941C14.2487 33.2751 15.3313 34.3577 16.6654 34.3577V33.3577C15.8836 33.3577 15.2487 32.7229 15.2487 31.941H14.2487ZM16.6654 29.5243C15.3313 29.5243 14.2487 30.6068 14.2487 31.941H15.2487C15.2487 31.1591 15.8836 30.5243 16.6654 30.5243V29.5243ZM17.9045 29.5243H16.6654V30.5243H17.9045V29.5243ZM17.4045 27.5403V30.0243H18.4045V27.5403H17.4045ZM7.29771 28.0403H17.9045V27.0403H7.29771V28.0403ZM4.27876 34.5611L7.74314 27.7675L6.85228 27.3132L3.38791 34.1068L4.27876 34.5611ZM3.83238 34.834H3.83333V33.834H3.83238V34.834ZM4.33238 42.6149V34.334H3.33238V42.6149H4.33238ZM37.7746 35.7871H33.3912V36.7871H37.7746V35.7871ZM40.1912 38.2038C40.1912 36.8696 39.1087 35.7871 37.7746 35.7871V36.7871C38.5564 36.7871 39.1912 37.4219 39.1912 38.2038H40.1912ZM37.7746 40.6204C39.1087 40.6204 40.1912 39.5379 40.1912 38.2038H39.1912C39.1912 38.9856 38.5564 39.6204 37.7746 39.6204V40.6204ZM33.3912 40.6204H37.7746V39.6204H33.3912V40.6204ZM30.9745 38.2038C30.9745 39.5379 32.057 40.6204 33.3912 40.6204V39.6204C32.6093 39.6204 31.9745 38.9856 31.9745 38.2038H30.9745ZM33.3912 35.7871C32.057 35.7871 30.9745 36.8696 30.9745 38.2038H31.9745C31.9745 37.4219 32.6093 36.7871 33.3912 36.7871V35.7871Z" fill="black" mask="url(#path-1-inside-1_8_499)"/>
</g>
<defs>
<clipPath id="clip0_8_499">
<rect width="46" height="46" fill="white" transform="translate(0 0.448242)"/>
</clipPath>
</defs>
</svg>
