<svg width="46" height="47" viewBox="0 0 46 47" fill="none" xmlns="http://www.w3.org/2000/svg">
<path d="M45.9569 15.9129L43.0819 4.41287C42.9237 3.77174 42.3459 3.32324 41.6875 3.32324H4.3125C3.65412 3.32324 3.07625 3.77174 2.91812 4.41287L0.043125 15.9129C0.014375 16.025 0 16.1429 0 16.2607C0 18.67 1.14138 20.7946 2.875 22.0999V42.1357C2.875 42.9292 3.519 43.5732 4.3125 43.5732H18.6875C19.481 43.5732 20.125 42.9292 20.125 42.1357V32.0732H25.875V42.1357C25.875 42.9292 26.519 43.5732 27.3125 43.5732H41.6875C42.481 43.5732 43.125 42.9292 43.125 42.1357V22.0999C44.8586 20.7946 46 18.67 46 16.2607C46 16.1429 45.9856 16.025 45.9569 15.9129ZM40.25 40.6982H28.75V30.6357C28.75 29.8422 28.106 29.1982 27.3125 29.1982H18.6875C17.894 29.1982 17.25 29.8422 17.25 30.6357V40.6982H5.75V23.3332C6.10362 23.3936 6.46012 23.4482 6.82812 23.4482C9.01888 23.4482 10.9681 22.3586 12.2188 20.6681C13.4694 22.3586 15.4186 23.4482 17.6094 23.4482C19.8001 23.4482 21.7494 22.3586 23 20.6681C24.2506 22.3586 26.1999 23.4482 28.3906 23.4482C30.5814 23.4482 32.5306 22.3586 33.7812 20.6681C35.0319 22.3586 36.9811 23.4482 39.1719 23.4482C39.5399 23.4482 39.8964 23.3936 40.25 23.3332V40.6982ZM39.1719 20.5732C36.9926 20.5732 35.2188 18.6384 35.2188 16.2607C35.2188 15.4672 34.5747 14.8232 33.7812 14.8232C32.9878 14.8232 32.3438 15.4672 32.3438 16.2607C32.3438 18.6384 30.5699 20.5732 28.3906 20.5732C26.2114 20.5732 24.4375 18.6384 24.4375 16.2607C24.4375 15.4672 23.7935 14.8232 23 14.8232C22.2065 14.8232 21.5625 15.4672 21.5625 16.2607C21.5625 18.6384 19.7886 20.5732 17.6094 20.5732C15.4301 20.5732 13.6562 18.6384 13.6562 16.2607C13.6562 15.4672 13.0122 14.8232 12.2188 14.8232C11.4253 14.8232 10.7812 15.4672 10.7812 16.2607C10.7812 18.6384 9.00737 20.5732 6.82812 20.5732C4.70062 20.5732 2.95838 18.7275 2.87788 16.4275L5.43663 6.19824H40.5662L43.125 16.4275C43.0416 18.7275 41.2994 20.5732 39.1719 20.5732Z" fill="white"/>
</svg>
