<svg width="46" height="47" viewBox="0 0 46 47" fill="none" xmlns="http://www.w3.org/2000/svg">
<path d="M33.3883 15.3024V12.2741C33.3883 9.51892 32.2938 6.8766 30.3456 4.92841C28.3975 2.98022 25.7551 1.88574 23 1.88574C20.2448 1.88574 17.6025 2.98022 15.6543 4.92841C13.7061 6.8766 12.6117 9.51892 12.6117 12.2741V15.3024C10.8288 15.3225 9.12551 16.0436 7.87014 17.3098C6.61478 18.5759 5.90824 20.2853 5.90332 22.0682V38.2449C5.90839 40.0411 6.62548 41.7619 7.89736 43.0302C9.16925 44.2985 10.8921 45.0107 12.6883 45.0107H33.3116C35.1078 45.0107 36.8307 44.2985 38.1026 43.0302C39.3745 41.7619 40.0916 40.0411 40.0966 38.2449V22.0682C40.0917 20.2853 39.3852 18.5759 38.1298 17.3098C36.8745 16.0436 35.1712 15.3225 33.3883 15.3024ZM15.4867 12.2741C15.4867 10.2814 16.2782 8.37037 17.6873 6.96135C19.0963 5.55232 21.0073 4.76074 23 4.76074C24.9926 4.76074 26.9037 5.55232 28.3127 6.96135C29.7217 8.37037 30.5133 10.2814 30.5133 12.2741V15.3024H15.4867V12.2741ZM37.2216 38.2449C37.2216 39.2616 36.8178 40.2366 36.0989 40.9555C35.38 41.6744 34.405 42.0782 33.3883 42.0782H12.6883C11.6717 42.0782 10.6966 41.6744 9.97774 40.9555C9.25885 40.2366 8.85499 39.2616 8.85499 38.2449V22.0682C8.85499 21.0516 9.25885 20.0766 9.97774 19.3577C10.6966 18.6388 11.6717 18.2349 12.6883 18.2349H33.3116C34.3283 18.2349 35.3033 18.6388 36.0222 19.3577C36.7411 20.0766 37.145 21.0516 37.145 22.0682L37.2216 38.2449Z" fill="white"/>
<path d="M23.0001 23.4484C22.4165 23.4416 21.8449 23.6137 21.3622 23.9416C20.8794 24.2695 20.5087 24.7374 20.2999 25.2823C20.0911 25.8273 20.0543 26.4231 20.1943 26.9896C20.3344 27.5561 20.6447 28.0661 21.0834 28.4509V34.9485C21.0834 35.4568 21.2853 35.9443 21.6448 36.3037C22.0042 36.6632 22.4917 36.8651 23.0001 36.8651C23.5084 36.8651 23.9959 36.6632 24.3554 36.3037C24.7148 35.9443 24.9167 35.4568 24.9167 34.9485V28.4509C25.3554 28.0661 25.6657 27.5561 25.8058 26.9896C25.9459 26.4231 25.909 25.8273 25.7002 25.2823C25.4915 24.7374 25.1207 24.2695 24.638 23.9416C24.1552 23.6137 23.5836 23.4416 23.0001 23.4484Z" fill="white"/>
</svg>
