<svg width="46" height="47" viewBox="0 0 46 47" fill="none" xmlns="http://www.w3.org/2000/svg">
<g clip-path="url(#clip0_8_570)">
<path d="M16.6325 18.6992C13.9725 18.6992 11.8083 21.0834 11.8083 24.0139C11.8083 26.9444 13.9725 29.3286 16.6325 29.3286C19.2926 29.3286 21.4569 26.9444 21.4569 24.0139C21.4569 21.0834 19.2926 18.6992 16.6325 18.6992ZM16.6325 26.6333C15.4587 26.6333 14.5037 25.4583 14.5037 24.0139C14.5037 22.5696 15.4587 21.3945 16.6325 21.3945C17.8064 21.3945 18.7615 22.5696 18.7615 24.0139C18.7615 25.4583 17.8064 26.6333 16.6325 26.6333Z" fill="white"/>
<path d="M29.3676 18.6992C26.7075 18.6992 24.5432 21.0834 24.5432 24.0139C24.5432 26.9444 26.7075 29.3286 29.3676 29.3286C32.0276 29.3286 34.1917 26.9444 34.1917 24.0139C34.1917 21.0834 32.0276 18.6992 29.3676 18.6992ZM29.3676 26.6333C28.1937 26.6333 27.2385 25.4583 27.2385 24.0139C27.2385 22.5696 28.1937 21.3945 29.3676 21.3945C30.5414 21.3945 31.4964 22.5696 31.4964 24.0139C31.4964 25.4583 30.5414 26.6333 29.3676 26.6333Z" fill="white"/>
<path d="M45.998 33.0238C45.9662 32.454 45.1603 18.976 40.0421 10.9135C39.9375 10.7486 39.7981 10.6084 39.634 10.5027C33.3054 6.42752 28.9946 6.4392 28.8143 6.43848C28.2915 6.44539 27.8414 6.74943 27.6238 7.18876L25.4496 11.3552C24.6398 11.3022 23.8221 11.2747 23 11.2747C22.1781 11.2747 21.3604 11.3022 20.5505 11.3552L18.3788 7.19361C18.1622 6.75176 17.7106 6.44548 17.1858 6.43857C17.0044 6.43749 12.6941 6.42796 6.36627 10.5028C6.20213 10.6086 6.06278 10.7487 5.95811 10.9136C0.839891 18.976 0.0339026 32.454 0.00209791 33.0238C-0.0178474 33.381 0.105059 33.7315 0.343774 33.9981C0.581141 34.2629 6.21965 40.4586 14.0133 40.4586C14.0482 40.4586 14.084 40.4585 14.119 40.4583C14.5286 40.4553 14.9145 40.2663 15.1679 39.9447L18.7628 35.3825C20.1435 35.5402 21.5617 35.6223 23 35.6223C24.4384 35.6223 25.8566 35.5402 27.2372 35.3825L30.8322 39.9447C31.0856 40.2663 31.4715 40.4553 31.8811 40.4583C31.9166 40.4585 31.9514 40.4586 31.9867 40.4586C39.7797 40.4586 45.4191 34.2629 45.6563 33.9981C45.8949 33.7315 46.0178 33.381 45.998 33.0238ZM32.5349 37.7506L30.2874 34.8983C33.7086 34.1945 36.7794 32.9968 39.1762 31.3887C39.7944 30.9741 39.9593 30.1368 39.5446 29.5188C39.13 28.9007 38.2925 28.7355 37.6747 29.1504C34.0973 31.5506 28.7485 32.927 23 32.927C17.2518 32.927 11.9031 31.5506 8.32541 29.1507C7.70719 28.7361 6.87011 28.9011 6.45549 29.5192C6.04086 30.1373 6.20581 30.9745 6.82394 31.3891C9.22097 32.9969 12.2916 34.1946 15.7128 34.8984L13.4654 37.7506C8.18857 37.5057 3.98927 33.8156 2.73533 32.591C2.94466 29.9797 4.03087 19.2099 8.07771 12.608C12.0516 10.0996 15.0505 9.40197 16.3899 9.20809L17.6685 11.6582C14.6623 12.0972 11.8458 12.9039 9.44665 14.0334C8.77328 14.3504 8.48443 15.1533 8.8014 15.8268C9.11846 16.5001 9.92139 16.7888 10.5947 16.472C14.0219 14.8585 18.4275 13.97 23 13.97C27.5728 13.97 31.9786 14.8587 35.4056 16.4724C35.5911 16.5597 35.7863 16.6012 35.9788 16.6012C36.4844 16.6012 36.9692 16.315 37.1989 15.8272C37.5159 15.154 37.2271 14.3509 36.5537 14.0339C34.1545 12.9043 31.338 12.0974 28.3315 11.6584L29.6101 9.20827C30.9494 9.40215 33.9484 10.0998 37.9225 12.6082C41.9647 19.2031 43.0545 29.9842 43.2647 32.5934C42.0139 33.8206 37.8333 37.5077 32.5349 37.7506Z" fill="white"/>
</g>
<defs>
<clipPath id="clip0_8_570">
<rect width="46" height="46" fill="white" transform="translate(0 0.448242)"/>
</clipPath>
</defs>
</svg>
