<svg width="46" height="47" viewBox="0 0 46 47" fill="none" xmlns="http://www.w3.org/2000/svg">
<g clip-path="url(#clip0_8_463)">
<path d="M8.28003 39.18C8.74003 39.18 8.83203 39.134 9.24603 39.042L17.526 37.386C18.4 37.156 19.274 36.742 19.964 36.052L40.02 15.996C43.102 12.914 43.102 7.62402 40.02 4.54202L38.318 2.74802C35.236 -0.333977 29.9 -0.333977 26.818 2.74802L6.76203 22.85C6.11803 23.494 5.65803 24.414 5.42803 25.288L3.68003 33.66C3.45003 35.224 3.91003 36.742 5.01403 37.846C5.88803 38.72 7.17603 39.18 8.28003 39.18ZM9.84403 26.162L29.9 6.06002C31.234 4.72602 33.672 4.72602 34.96 6.06002L36.708 7.80802C38.272 9.37202 38.272 11.58 36.708 13.098L16.698 33.2L8.18803 34.626L9.84403 26.162Z" fill="white"/>
<path d="M39.8361 42.0322H5.88806C4.55405 42.0322 3.68005 42.9062 3.68005 44.2402C3.68005 45.5742 4.78405 46.4483 5.88806 46.4483H39.6521C40.9861 46.4483 42.0901 45.5742 42.0901 44.2402C42.0441 42.9062 40.9401 42.0322 39.8361 42.0322Z" fill="white"/>
</g>
<defs>
<clipPath id="clip0_8_463">
<rect width="46" height="46" fill="white" transform="translate(0 0.448242)"/>
</clipPath>
</defs>
</svg>
