<svg width="46" height="47" viewBox="0 0 46 47" fill="none" xmlns="http://www.w3.org/2000/svg">
<path d="M36.685 42.1357H9.315C7.98825 42.1357 6.71585 41.6087 5.7777 40.6705C4.83955 39.7324 4.3125 38.46 4.3125 37.1332V9.76324C4.3125 8.4365 4.83955 7.16409 5.7777 6.22594C6.71585 5.28779 7.98825 4.76074 9.315 4.76074H36.685C38.0117 4.76074 39.2841 5.28779 40.2223 6.22594C41.1604 7.16409 41.6875 8.4365 41.6875 9.76324V37.1332C41.6875 38.46 41.1604 39.7324 40.2223 40.6705C39.2841 41.6087 38.0117 42.1357 36.685 42.1357ZM9.315 7.63574C8.75075 7.63574 8.20961 7.85989 7.81063 8.25887C7.41165 8.65786 7.1875 9.19899 7.1875 9.76324V37.1332C7.1875 37.6975 7.41165 38.2386 7.81063 38.6376C8.20961 39.0366 8.75075 39.2607 9.315 39.2607H36.685C37.2492 39.2607 37.7904 39.0366 38.1894 38.6376C38.5883 38.2386 38.8125 37.6975 38.8125 37.1332V9.76324C38.8125 9.19899 38.5883 8.65786 38.1894 8.25887C37.7904 7.85989 37.2492 7.63574 36.685 7.63574H9.315Z" fill="white"/>
<path d="M5.74999 36.501C5.54293 36.5004 5.33839 36.4556 5.15 36.3697C4.96161 36.2837 4.79371 36.1586 4.65749 36.0027C4.53488 35.8582 4.44205 35.6909 4.38434 35.5104C4.32662 35.3299 4.30516 35.1398 4.32119 34.951C4.33723 34.7622 4.39043 34.5784 4.47775 34.4102C4.56507 34.242 4.68478 34.0928 4.82999 33.971L14.6433 25.691C15.376 25.0726 16.3138 24.7513 17.2718 24.7903C18.2298 24.8293 19.1384 25.2259 19.8183 25.9019L24.4758 30.5594C24.6494 30.7078 24.8703 30.7894 25.0987 30.7894C25.3272 30.7894 25.5481 30.7078 25.7217 30.5594L30.245 27.2819C30.9153 26.7659 31.7374 26.4861 32.5833 26.4861C33.4292 26.4861 34.2514 26.7659 34.9217 27.2819L41.1508 32.246C41.2993 32.3643 41.4231 32.5107 41.515 32.6768C41.6069 32.843 41.6652 33.0256 41.6866 33.2142C41.708 33.4029 41.6919 33.5939 41.6395 33.7764C41.587 33.9588 41.4991 34.1292 41.3808 34.2777C41.2625 34.4262 41.1161 34.55 40.95 34.6419C40.7839 34.7338 40.6013 34.7921 40.4126 34.8135C40.224 34.8348 40.0329 34.8188 39.8505 34.7664C39.668 34.7139 39.4977 34.626 39.3492 34.5077L33.1392 29.5244C32.9716 29.3954 32.766 29.3254 32.5546 29.3254C32.3431 29.3254 32.1376 29.3954 31.97 29.5244L27.4467 33.0319C26.7104 33.5847 25.7997 33.8541 24.8812 33.7908C23.9626 33.7274 23.0976 33.3356 22.4442 32.6869L17.7867 27.9335C17.6106 27.7746 17.3818 27.6866 17.1446 27.6866C16.9074 27.6866 16.6786 27.7746 16.5025 27.9335L6.66999 36.1752C6.41325 36.3922 6.08611 36.5081 5.74999 36.501Z" fill="white"/>
<path d="M28.75 22.9694C27.7075 22.9694 26.6884 22.6603 25.8216 22.0811C24.9549 21.5019 24.2793 20.6788 23.8803 19.7156C23.4814 18.7525 23.377 17.6927 23.5804 16.6703C23.7838 15.6478 24.2858 14.7087 25.0229 13.9715C25.7601 13.2344 26.6992 12.7324 27.7217 12.529C28.7441 12.3256 29.8039 12.43 30.767 12.829C31.7301 13.2279 32.5533 13.9035 33.1325 14.7703C33.7117 15.637 34.0208 16.6561 34.0208 17.6986C34.0208 19.0965 33.4655 20.4371 32.477 21.4256C31.4885 22.4141 30.1479 22.9694 28.75 22.9694ZM28.75 15.3027C28.2761 15.3027 27.8129 15.4432 27.4189 15.7065C27.0249 15.9698 26.7178 16.3439 26.5365 16.7817C26.3552 17.2195 26.3077 17.7012 26.4002 18.166C26.4926 18.6307 26.7208 19.0576 27.0559 19.3927C27.3909 19.7277 27.8178 19.9559 28.2826 20.0484C28.7473 20.1408 29.229 20.0934 29.6668 19.912C30.1046 19.7307 30.4788 19.4236 30.742 19.0296C31.0053 18.6356 31.1458 18.1724 31.1458 17.6986C31.1458 17.0632 30.8934 16.4538 30.4441 16.0045C29.9948 15.5552 29.3854 15.3027 28.75 15.3027Z" fill="white"/>
</svg>
