<svg width="651" height="856" viewBox="0 0 651 856" fill="none" xmlns="http://www.w3.org/2000/svg">
<path d="M650.694 281.97C650.952 281.401 651.051 280.774 650.981 280.154C650.911 279.534 650.674 278.944 650.296 278.448C649.917 277.952 649.411 277.567 648.832 277.335C648.252 277.103 647.62 277.033 647.004 277.131C622.176 281.001 596.758 277.615 573.812 267.381C546.994 255.66 519.188 246.341 490.721 239.535C491.44 236.581 492.846 233.839 494.825 231.53C501.755 223.669 505.841 203.864 485.392 190.336C464.943 176.809 434.99 157.327 424.657 151.031C414.325 144.735 378.719 117.699 378.413 108.273C378.107 98.8467 380.933 76.1992 380.933 76.1992C380.933 76.1992 387.882 101.041 389.682 104.495C391.482 107.949 444.44 145.365 456.069 149.466C456.069 149.466 426.08 86.7765 418.519 67.9066C410.959 49.0366 408.871 42.7227 399.222 36.8944C389.574 31.0661 329.379 -0.359757 326.679 1.27954e-05C317.373 1.27954e-05 287.329 17.6107 269.706 28.08C252.084 38.5493 237.341 46.5902 235.253 64.5787C233.165 82.5672 199.575 145.527 199.575 145.527C221.392 137.99 265.026 125.398 265.026 125.398C265.026 125.398 237.755 143.386 191.619 171.52C145.483 199.654 148.417 217.643 155.113 228.13C157.482 231.873 159.386 235.89 160.783 240.092C155.599 240.884 48.1342 257.901 0.485979 327.354C0.178623 327.803 0.0119126 328.332 0.00712513 328.876C0.00233765 329.419 0.159686 329.952 0.459096 330.405C0.758506 330.859 1.18639 331.213 1.68814 331.423C2.18988 331.632 2.74273 331.688 3.27611 331.582C14.4906 329.441 38.5217 327.013 62.8588 338.489C78.5376 345.865 106.061 360.831 161.161 380.097C161.161 380.097 157.561 441.941 127.32 483.441C97.0784 524.94 53.5164 610.799 144.241 674.928C144.241 674.928 115.997 618.336 145.249 588.151C145.249 588.151 131.1 652.298 183.95 698.511C236.801 744.723 221.752 807.935 221.752 807.935C221.752 807.935 250.067 796.62 268.95 759.834C268.95 759.834 261.39 855.173 382.23 856.054C382.23 856.054 333.141 785.305 417.151 723.983C417.151 723.983 451.137 793.796 519.09 757.945C519.09 757.945 492.665 757.009 483.232 723.047C473.8 689.085 499.271 675.881 490.775 626.827C490.775 626.827 513.438 669.28 574.784 658.9C574.784 658.9 536.083 634.993 538.603 595.383C541.123 555.772 551.203 515.514 512.177 458.293C494.177 431.904 491.711 404.183 494.285 381.967C575.738 357.791 633.863 318.774 650.694 281.97ZM347.2 497.543C340.214 495.691 333.358 493.378 326.679 490.618C319.976 493.382 313.097 495.695 306.086 497.543C295.088 500.368 287.527 508.642 281.551 515.244C281.551 515.244 283.351 496.914 294.151 485.905C297.932 481.822 313.61 485.275 326.697 476.155C339.784 485.275 355.498 481.822 359.242 485.905C369.935 496.914 371.843 515.244 371.843 515.244C365.777 508.642 358.216 500.368 347.2 497.543ZM429.284 432.137C425.504 437.174 407.251 449.748 405.361 454.767C403.47 459.786 407.575 469.158 403.795 475.22C400.382 480.013 396.479 484.439 392.148 488.423C386.172 474.266 372.959 461.692 367.613 458.868C362.267 456.044 341.494 456.026 341.494 456.026C349.36 451.637 368.243 446.924 368.495 441.635C368.747 436.347 348.982 417.117 348.982 417.117C348.982 417.117 353.392 434.098 347.722 439.711C342.052 445.323 326.679 451.637 326.679 451.637C326.679 451.637 311.126 445.233 305.474 439.639C299.822 434.044 304.214 417.045 304.214 417.045C304.214 417.045 284.413 436.221 284.701 441.563C284.989 446.906 303.89 451.637 311.702 455.954C311.702 455.954 290.929 455.954 285.583 458.796C280.237 461.638 267.024 474.194 261.048 488.351C256.717 484.367 252.814 479.941 249.401 475.148C245.621 469.176 249.725 459.732 247.835 454.695C245.945 449.658 227.692 437.102 223.912 432.065C220.132 427.029 221.716 399.057 222.112 391.501C222.112 391.501 273.361 408.482 326.715 408.482C380.069 408.482 431.318 391.501 431.318 391.501C431.534 399.164 433.1 427.101 429.284 432.137Z" fill="white"/>
</svg>
