<svg width="11" height="11" viewBox="0 0 11 11" fill="none" xmlns="http://www.w3.org/2000/svg">
<g clip-path="url(#clip0_10_908)">
<path d="M5.95435 1.45605C7.29028 1.45605 7.44849 1.46191 7.97388 1.48535C8.46216 1.50684 8.72583 1.58887 8.90161 1.65723C9.13403 1.74707 9.302 1.85645 9.47583 2.03027C9.65161 2.20605 9.75903 2.37207 9.84888 2.60449C9.91724 2.78027 9.99927 3.0459 10.0208 3.53223C10.0442 4.05957 10.05 4.21777 10.05 5.55176C10.05 6.8877 10.0442 7.0459 10.0208 7.57129C9.99927 8.05957 9.91724 8.32324 9.84888 8.49902C9.75903 8.73145 9.64966 8.89942 9.47583 9.07324C9.30005 9.24902 9.13403 9.35645 8.90161 9.44629C8.72583 9.51465 8.46021 9.59668 7.97388 9.61816C7.44653 9.6416 7.28833 9.64746 5.95435 9.64746C4.61841 9.64746 4.46021 9.6416 3.93481 9.61816C3.44653 9.59668 3.18286 9.51465 3.00708 9.44629C2.77466 9.35645 2.60669 9.24707 2.43286 9.07324C2.25708 8.89746 2.14966 8.73145 2.05981 8.49902C1.99145 8.32324 1.90942 8.05762 1.88794 7.57129C1.8645 7.04395 1.85864 6.88574 1.85864 5.55176C1.85864 4.21582 1.8645 4.05762 1.88794 3.53223C1.90942 3.04395 1.99145 2.78027 2.05981 2.60449C2.14966 2.37207 2.25903 2.2041 2.43286 2.03027C2.60864 1.85449 2.77466 1.74707 3.00708 1.65723C3.18286 1.58887 3.44849 1.50684 3.93481 1.48535C4.46021 1.46191 4.61841 1.45605 5.95435 1.45605ZM5.95435 0.555664C4.59692 0.555664 4.427 0.561523 3.8938 0.584961C3.36255 0.608398 2.99731 0.694336 2.68091 0.817383C2.35083 0.946289 2.07153 1.11621 1.79419 1.39551C1.51489 1.67285 1.34497 1.95215 1.21606 2.28027C1.09302 2.59863 1.00708 2.96191 0.983643 3.49316C0.960205 4.02832 0.954346 4.19824 0.954346 5.55566C0.954346 6.91309 0.960205 7.08301 0.983643 7.61621C1.00708 8.14746 1.09302 8.5127 1.21606 8.8291C1.34497 9.15918 1.51489 9.43848 1.79419 9.71582C2.07153 9.99316 2.35083 10.165 2.67896 10.292C2.99731 10.415 3.3606 10.501 3.89185 10.5244C4.42505 10.5479 4.59497 10.5537 5.95239 10.5537C7.30981 10.5537 7.47974 10.5479 8.01294 10.5244C8.54419 10.501 8.90942 10.415 9.22583 10.292C9.55396 10.165 9.83325 9.99316 10.1106 9.71582C10.3879 9.43848 10.5598 9.15918 10.6868 8.83106C10.8098 8.5127 10.8958 8.14942 10.9192 7.61816C10.9426 7.08496 10.9485 6.91504 10.9485 5.55762C10.9485 4.2002 10.9426 4.03027 10.9192 3.49707C10.8958 2.96582 10.8098 2.60059 10.6868 2.28418C10.5637 1.95215 10.3938 1.67285 10.1145 1.39551C9.83716 1.11816 9.55786 0.946289 9.22974 0.819336C8.91138 0.696289 8.5481 0.610352 8.01685 0.586914C7.48169 0.561523 7.31177 0.555664 5.95435 0.555664Z" fill="#03060B"/>
<path d="M5.95435 2.9873C4.53638 2.9873 3.38599 4.1377 3.38599 5.55566C3.38599 6.97363 4.53638 8.12402 5.95435 8.12402C7.37231 8.12402 8.52271 6.97363 8.52271 5.55566C8.52271 4.1377 7.37231 2.9873 5.95435 2.9873ZM5.95435 7.22168C5.03442 7.22168 4.28833 6.47559 4.28833 5.55566C4.28833 4.63574 5.03442 3.88965 5.95435 3.88965C6.87427 3.88965 7.62036 4.63574 7.62036 5.55566C7.62036 6.47559 6.87427 7.22168 5.95435 7.22168Z" fill="#03060B"/>
<path d="M9.22388 2.88574C9.22388 3.21777 8.95435 3.48535 8.62427 3.48535C8.29224 3.48535 8.02466 3.21582 8.02466 2.88574C8.02466 2.55371 8.29419 2.28613 8.62427 2.28613C8.95435 2.28613 9.22388 2.55566 9.22388 2.88574Z" fill="#03060B"/>
</g>
<defs>
<clipPath id="clip0_10_908">
<rect width="10" height="10" fill="white" transform="translate(0.954346 0.555664)"/>
</clipPath>
</defs>
</svg>
