<svg width="12" height="10" viewBox="0 0 12 10" fill="none" xmlns="http://www.w3.org/2000/svg">
<path fill-rule="evenodd" clip-rule="evenodd" d="M1.99322 2.50012C2.68361 2.50012 3.24328 1.94045 3.24328 1.25006C3.24328 0.559672 2.68361 0 1.99322 0C1.30284 0 0.743164 0.559672 0.743164 1.25006C0.743164 1.94045 1.30284 2.50012 1.99322 2.50012ZM3.24323 3.12475H0.743164V10H3.24323V3.12475ZM6.9934 4.2373C6.9934 4.2373 7.2184 3.12475 9.09347 3.12475C10.5185 3.12475 11.3685 4.29354 11.3685 6.24987V10H8.86847V6.24987C8.86847 5.55606 8.68095 4.99981 8.05595 4.99981C6.9934 4.99981 6.9934 6.24987 6.9934 6.24987V10H4.49333V3.12475H6.9934V4.2373Z" fill="#03060B"/>
</svg>
